<svg xmlns="http://www.w3.org/2000/svg" width="1600" height="900" viewBox="0 0 1600 900" role="img" aria-labelledby="t d">
<title id="t">FareWeave</title><desc id="d">Selbst gehosteter Reisevergleich ohne KI für Bahn, Deutschlandticket, Split-Ticketing, Flix, Flüge und Unterkünfte.</desc>
<defs><linearGradient id="bg" x1="0" y1="0" x2="1" y2="1"><stop stop-color="#0c1220"/><stop offset="1" stop-color="#18263a"/></linearGradient></defs>
<rect width="1600" height="900" rx="36" fill="url(#bg)"/><g fill="none" stroke="#8fb3d9" stroke-width="8" opacity=".35"><path d="M120 690 C360 420 520 740 760 470 S1160 350 1480 190"/><path d="M160 260 C470 120 650 310 880 210 S1250 140 1480 300"/></g>
<g fill="#f4f7fb" font-family="system-ui,-apple-system,Segoe UI,sans-serif"><text x="120" y="210" font-size="96" font-weight="700">FareWeave</text><text x="124" y="295" font-size="40">Selbst gehosteter Reisevergleich ohne KI</text><text x="124" y="370" font-size="29" fill="#c8d5e5">DB · Deutschlandticket · Split-Ticketing · Flix · Flüge · Transfers · Unterkünfte</text></g>
<g font-family="system-ui,-apple-system,Segoe UI,sans-serif"><g transform="translate(120 500)"><rect width="370" height="155" rx="24" fill="#f4f7fb"/><text x="32" y="58" font-size="27" font-weight="700" fill="#111827">Split-Ticketing integriert</text><text x="32" y="104" font-size="22" fill="#4b5563">Direkt bei der Suche mitprüfen</text></g><g transform="translate(615 500)"><rect width="370" height="155" rx="24" fill="#f4f7fb"/><text x="32" y="58" font-size="27" font-weight="700" fill="#111827">Deutschlandticket</text><text x="32" y="104" font-size="22" fill="#4b5563">In der Reisekette berücksichtigt</text></g><g transform="translate(1110 500)"><rect width="370" height="155" rx="24" fill="#f4f7fb"/><text x="32" y="58" font-size="27" font-weight="700" fill="#111827">Planen statt buchen</text><text x="32" y="104" font-size="22" fill="#4b5563">Links führen zum Anbieter</text></g></g>
<text x="120" y="790" fill="#b8c7da" font-size="25" font-family="system-ui,-apple-system,Segoe UI,sans-serif">Entwickelt für Tarnkappe.info · deterministische Reiseplanung</text>
</svg>
